<?xml version="1.0" encoding="UTF-8" ?>
<!DOCTYPE svg PUBLIC "-//W3C//DTD SVG 1.1//EN" "http://www.w3.org/Graphics/SVG/1.1/DTD/svg11.dtd">
<svg width="60pt" height="60pt" viewBox="0 0 60 60" version="1.1" xmlns="http://www.w3.org/2000/svg">
<g id="#ffffffff">
<path fill="#ffffff" opacity="1.00" d=" M 13.49 9.67 C 13.57 5.53 16.70 1.45 21.02 1.31 C 31.00 1.20 40.99 1.26 50.97 1.28 C 55.06 1.21 58.78 4.85 58.74 8.96 C 58.78 18.99 58.78 29.03 58.75 39.06 C 58.82 43.15 55.16 46.82 51.08 46.80 C 45.46 46.90 39.85 46.79 34.23 46.83 C 34.29 48.17 34.13 49.47 33.73 50.73 C 31.19 51.04 28.61 50.87 26.06 50.78 C 25.94 49.32 25.87 47.86 25.81 46.40 C 24.34 45.81 22.88 45.20 21.42 44.58 C 20.34 45.59 19.25 46.58 18.10 47.52 C 16.18 45.71 14.31 43.86 12.52 41.92 C 13.48 40.82 14.48 39.74 15.47 38.66 C 14.85 37.20 14.24 35.74 13.66 34.27 C 12.18 34.19 10.70 34.10 9.22 33.94 C 9.17 31.34 9.17 28.73 9.24 26.13 C 10.71 26.00 12.18 25.91 13.65 25.83 C 14.37 24.54 14.45 22.59 15.87 21.85 C 17.69 21.61 19.53 21.73 21.36 21.68 C 19.27 24.35 17.71 27.63 18.15 31.11 C 18.59 37.02 24.04 41.91 29.93 41.91 C 36.96 41.94 44.00 42.01 51.03 41.89 C 53.02 41.93 54.58 39.95 54.37 38.03 C 54.37 28.34 54.47 18.65 54.32 8.96 C 54.35 6.78 52.06 5.36 50.05 5.67 C 40.35 5.73 30.65 5.55 20.95 5.76 C 18.92 5.94 18.25 8.05 17.79 9.69 C 16.36 9.69 14.93 9.68 13.49 9.67 Z" />
<path fill="#ffffff" opacity="1.00" d=" M 26.11 9.30 C 28.64 9.26 31.18 9.09 33.70 9.37 C 34.44 10.66 34.03 12.25 34.19 13.67 C 35.64 14.27 37.09 14.89 38.54 15.54 C 39.64 14.52 40.77 13.54 41.93 12.58 C 43.82 14.38 45.67 16.23 47.47 18.12 C 46.54 19.27 45.56 20.38 44.54 21.46 C 45.15 22.91 45.76 24.36 46.35 25.83 C 47.82 25.91 49.30 26.00 50.77 26.14 C 50.84 28.77 50.83 31.40 50.74 34.02 C 49.28 34.13 47.82 34.18 46.36 34.25 C 45.65 35.56 45.55 37.46 44.15 38.24 C 42.33 38.49 40.47 38.36 38.64 38.41 C 40.76 35.72 42.32 32.39 41.84 28.88 C 41.35 23.01 35.93 18.19 30.08 18.18 C 23.06 18.14 16.04 18.09 9.02 18.20 C 7.06 18.14 5.45 20.06 5.63 21.98 C 5.61 31.64 5.56 41.30 5.66 50.96 C 5.57 52.75 7.23 54.46 9.03 54.38 C 18.69 54.48 28.36 54.42 38.02 54.41 C 40.51 54.75 41.79 52.40 42.29 50.37 C 43.69 50.39 45.10 50.41 46.51 50.44 C 46.41 54.57 43.29 58.66 38.97 58.78 C 28.98 58.89 18.99 58.83 9.00 58.80 C 4.89 58.87 1.18 55.19 1.26 51.07 C 1.21 41.07 1.22 31.07 1.25 21.07 C 1.16 16.93 4.87 13.23 9.00 13.29 C 14.59 13.20 20.18 13.29 25.77 13.27 C 25.86 11.94 25.97 10.62 26.11 9.30 Z" />
<path fill="#ffffff" opacity="1.00" d=" M 28.42 23.57 C 33.17 22.19 38.04 27.26 36.39 31.96 C 35.20 36.65 28.57 38.34 25.29 34.77 C 21.58 31.40 23.52 24.53 28.42 23.57 Z" />
</g>
</svg>
